<svg xmlns="http://www.w3.org/2000/svg" width="34" height="34" viewBox="0 0 34 34"><g transform="translate(-242 -14.027)"><rect width="34" height="34" transform="translate(242 14.027)" fill="#fff" opacity="0"/><g transform="translate(246 18.027)" opacity="0.9"><path d="M0-.75H4.38A.75.75,0,0,1,5.13,0V11.473a.75.75,0,0,1-.75.75H0a.75.75,0,0,1-.75-.75V0A.75.75,0,0,1,0-.75ZM3.63.75H.75v9.973H3.63Z" transform="translate(4.225 15.596)" fill="#fff"/><path d="M0-.75H4.38A.75.75,0,0,1,5.13,0V16.062a.75.75,0,0,1-.75.75H0a.75.75,0,0,1-.75-.75V0A.75.75,0,0,1,0-.75ZM3.63.75H.75V15.312H3.63Z" transform="translate(11.532 11.007)" fill="#fff"/><path d="M0-.75H4.38A.75.75,0,0,1,5.13,0V8.031a.75.75,0,0,1-.75.75H0a.75.75,0,0,1-.75-.75V0A.75.75,0,0,1,0-.75ZM3.63.75H.75V7.281H3.63Z" transform="translate(18.784 19.038)" fill="#fff"/><path d="M26.469.75H0A.75.75,0,0,1-.75,0,.75.75,0,0,1,0-.75H26.469a.75.75,0,0,1,.75.75A.75.75,0,0,1,26.469.75Z" transform="translate(0 27.067)" fill="#fff"/><ellipse cx="1.3" cy="1.3" rx="1.3" ry="1.3" transform="translate(4.614 4.626)" fill="#fff"/><path d="M1.3-.75A2.05,2.05,0,1,1-.75,1.3,2.052,2.052,0,0,1,1.3-.75Zm0,2.6A.55.55,0,1,0,.75,1.3.551.551,0,0,0,1.3,1.85Z" transform="translate(4.614 4.626)" fill="#fff"/><ellipse cx="1.3" cy="1.3" rx="1.3" ry="1.3" transform="translate(12.493 -1)" fill="#fff"/><path d="M1.3-.75A2.05,2.05,0,1,1-.75,1.3,2.052,2.052,0,0,1,1.3-.75Zm0,2.6A.55.55,0,1,0,.75,1.3.551.551,0,0,0,1.3,1.85Z" transform="translate(12.493 -1)" fill="#fff"/><ellipse cx="1.3" cy="1.3" rx="1.3" ry="1.3" transform="translate(20.117 7.832)" fill="#fff"/><path d="M1.3-.75A2.05,2.05,0,1,1-.75,1.3,2.052,2.052,0,0,1,1.3-.75Zm0,2.6A.55.55,0,1,0,.75,1.3.551.551,0,0,0,1.3,1.85Z" transform="translate(20.117 7.832)" fill="#fff"/><path d="M0,5.872a.749.749,0,0,1-.594-.292A.75.75,0,0,1-.458,4.529L6.175-.594a.75.75,0,0,1,1.052.135A.75.75,0,0,1,7.092.594L.458,5.716A.747.747,0,0,1,0,5.872Z" transform="translate(7.152 0.008)" fill="#fff"/><path d="M8,9.75A.748.748,0,0,1,7.439,9.5l-8-9A.75.75,0,0,1-.5-.561.75.75,0,0,1,.561-.5l8,9A.75.75,0,0,1,8,9.75Z" transform="translate(13.647 0.008)" fill="#fff"/></g></g></svg>