<svg xmlns="http://www.w3.org/2000/svg" width="34" height="34" viewBox="0 0 34 34"><g transform="translate(0 0.945)" opacity="0.9"><g opacity="0"><rect width="34" height="34" transform="translate(0 -0.945)" fill="#fff"/><path d="M1,1V33H33V1H1M0,0H34V34H0Z" transform="translate(0 -0.945)" fill="#fff"/></g><g transform="translate(5 2.056)"><path d="M1057.771,305.258h-12.914a.75.75,0,0,1-.75-.75V276.62a.75.75,0,0,1,.75-.75h18.137a.75.75,0,0,1,.559.25l5.768,6.441a.75.75,0,0,1,.191.5v7.566a.75.75,0,0,1-1.5,0v-7.28l-5.353-5.978h-17.052v26.389h12.164a.75.75,0,0,1,0,1.5Z" transform="translate(-1044.856 -276.62)" fill="#fff"/><g transform="translate(12.174 13.072)"><path d="M0-.75H3.91A.75.75,0,0,1,4.66,0V10.583a.75.75,0,0,1-.75.75H0a.75.75,0,0,1-.75-.75V0A.75.75,0,0,1,0-.75ZM3.16.75H.75V9.833H3.16Z" transform="translate(0 4.233)" fill="#fff"/><path d="M0-.75H3.91A.75.75,0,0,1,4.66,0V14.817a.75.75,0,0,1-.75.75H0a.75.75,0,0,1-.75-.75V0A.75.75,0,0,1,0-.75ZM3.16.75H.75V14.067H3.16Z" transform="translate(3.91)" fill="#fff"/><path d="M0-.75H3.91A.75.75,0,0,1,4.66,0V7.408a.75.75,0,0,1-.75.75H0a.75.75,0,0,1-.75-.75V0A.75.75,0,0,1,0-.75ZM3.16.75H.75V6.658H3.16Z" transform="translate(7.821 7.408)" fill="#fff"/></g><path d="M7.873.75H0A.75.75,0,0,1-.75,0,.75.75,0,0,1,0-.75H7.873a.75.75,0,0,1,.75.75A.75.75,0,0,1,7.873.75Z" transform="translate(4.752 6.083)" fill="#fff"/><path d="M8.069.75H0A.75.75,0,0,1-.75,0,.75.75,0,0,1,0-.75H8.069a.75.75,0,0,1,.75.75A.75.75,0,0,1,8.069.75Z" transform="translate(4.746 10.296)" fill="#fff"/><path d="M4.266.75H0A.75.75,0,0,1-.75,0,.75.75,0,0,1,0-.75H4.266a.75.75,0,0,1,.75.75A.75.75,0,0,1,4.266.75Z" transform="translate(4.854 14.509)" fill="#fff"/></g></g></svg>