<svg xmlns="http://www.w3.org/2000/svg" width="34" height="34" viewBox="0 0 34 34"><g transform="translate(-241 -244)"><rect width="34" height="34" transform="translate(241 244)" fill="#fff" opacity="0"/><g transform="translate(245 248)" opacity="0.9"><path d="M873.344,301.954a.75.75,0,0,1-.75-.75,5.693,5.693,0,0,0-11.387,0,.75.75,0,0,1-1.5,0,7.193,7.193,0,0,1,14.387,0A.75.75,0,0,1,873.344,301.954Z" transform="translate(-853.734 -287.923)" fill="#fff"/><path d="M3.419-.75A4.169,4.169,0,1,1-.75,3.419,4.174,4.174,0,0,1,3.419-.75Zm0,6.838A2.669,2.669,0,1,0,.75,3.419,2.672,2.672,0,0,0,3.419,6.088Z" transform="translate(9.748)" fill="#fff"/><path d="M889.3,333.869H876.415a.75.75,0,0,1-.75-.75,7.193,7.193,0,0,1,14.386,0A.75.75,0,0,1,889.3,333.869Zm-12.087-1.5H888.5a5.694,5.694,0,0,0-11.288,0Z" transform="translate(-862.968 -306.392)" fill="#fff"/><path d="M3.419-.75A4.169,4.169,0,1,1-.75,3.419,4.174,4.174,0,0,1,3.419-.75Zm0,6.838A2.669,2.669,0,1,0,.75,3.419,2.672,2.672,0,0,0,3.419,6.088Z" transform="translate(16.471 13.447)" fill="#fff"/><path d="M857.386,333.869H844.5a.75.75,0,0,1-.75-.75,7.193,7.193,0,0,1,14.386,0A.75.75,0,0,1,857.386,333.869Zm-12.087-1.5h11.288a5.694,5.694,0,0,0-11.288,0Z" transform="translate(-844.5 -306.392)" fill="#fff"/><path d="M3.419-.75A4.169,4.169,0,1,1-.75,3.419,4.174,4.174,0,0,1,3.419-.75Zm0,6.838A2.669,2.669,0,1,0,.75,3.419,2.672,2.672,0,0,0,3.419,6.088Z" transform="translate(3.024 13.447)" fill="#fff"/></g></g></svg>