<svg xmlns="http://www.w3.org/2000/svg" width="64" height="64" viewBox="0 0 64 64"><g transform="translate(12.625 2)"><g opacity="0"><rect width="64" height="64" transform="translate(-12.625 -2)" fill="#fff"/><path d="M1,1V63H63V1H1M0,0H64V64H0Z" transform="translate(-12.625 -2)" fill="#707070"/></g><g transform="translate(-3.639 3.001)"><path d="M1069.413,330.651h-24.557a1,1,0,0,1-1-1V276.62a1,1,0,0,1,1-1h34.488a1,1,0,0,1,.745.333l10.967,12.248a1,1,0,0,1,.255.667v14.387a1,1,0,0,1-2,0V289.25L1078.9,277.62h-33.041v51.031h23.557a1,1,0,0,1,0,2Z" transform="translate(-1044.856 -276.62)" fill="#222"/><g transform="translate(22.477 24.009)"><path d="M0-1H7.659a1,1,0,0,1,1,1V20.73a1,1,0,0,1-1,1H0a1,1,0,0,1-1-1V0A1,1,0,0,1,0-1ZM6.659,1H1V19.73H6.659Z" transform="translate(0 8.292)" fill="#1428a0"/><path d="M0-1H7.659a1,1,0,0,1,1,1V29.022a1,1,0,0,1-1,1H0a1,1,0,0,1-1-1V0A1,1,0,0,1,0-1ZM6.659,1H1V28.022H6.659Z" transform="translate(7.659)" fill="#1428a0"/><path d="M0-1H7.659a1,1,0,0,1,1,1V14.511a1,1,0,0,1-1,1H0a1,1,0,0,1-1-1V0A1,1,0,0,1,0-1ZM6.659,1H1V13.511H6.659Z" transform="translate(15.319 14.511)" fill="#1428a0"/></g><path d="M15.421,1H0A1,1,0,0,1-1,0,1,1,0,0,1,0-1H15.421a1,1,0,0,1,1,1A1,1,0,0,1,15.421,1Z" transform="translate(8.903 11.566)" fill="#222"/><path d="M15.8,1H0A1,1,0,0,1-1,0,1,1,0,0,1,0-1H15.8a1,1,0,0,1,1,1A1,1,0,0,1,15.8,1Z" transform="translate(8.887 19.577)" fill="#222"/><path d="M8.356,1H0A1,1,0,0,1-1,0,1,1,0,0,1,0-1H8.356a1,1,0,0,1,1,1A1,1,0,0,1,8.356,1Z" transform="translate(9.17 27.589)" fill="#222"/></g></g></svg>