<svg xmlns="http://www.w3.org/2000/svg" width="64" height="64" viewBox="0 0 64 64"><g transform="translate(-4 2.685)"><g opacity="0"><rect width="64" height="64" transform="translate(4 -2.685)" fill="#fff"/><path d="M1,1V63H63V1H1M0,0H64V64H0Z" transform="translate(4 -2.685)" fill="#707070"/></g><g transform="translate(10 6.315)"><path d="M0-1H7.51a1,1,0,0,1,1,1V9.731a1,1,0,0,1-1,1H0a1,1,0,0,1-1-1V0A1,1,0,0,1,0-1ZM6.51,1H1V8.731H6.51Z" transform="translate(9.899 28.382)" fill="#1428a0"/><path d="M0-1H7.51a1,1,0,0,1,1,1V16.965a1,1,0,0,1-1,1H0a1,1,0,0,1-1-1V0A1,1,0,0,1,0-1ZM6.51,1H1V15.965H6.51Z" transform="translate(22.632 21.148)" fill="#1428a0"/><path d="M0-1H7.51a1,1,0,0,1,1,1V6.811a1,1,0,0,1-1,1H0a1,1,0,0,1-1-1V0A1,1,0,0,1,0-1ZM6.51,1H1V5.811H6.51Z" transform="translate(35.366 31.301)" fill="#1428a0"/><path d="M2.228-1A3.2,3.2,0,0,1,5.457,2.157,3.2,3.2,0,0,1,2.228,5.313,3.2,3.2,0,0,1-1,2.157,3.2,3.2,0,0,1,2.228-1Zm0,4.313A1.2,1.2,0,0,0,3.457,2.157,1.2,1.2,0,0,0,2.228,1,1.2,1.2,0,0,0,1,2.157,1.2,1.2,0,0,0,2.228,3.313Z" transform="translate(10.565 14.489)" fill="#1428a0"/><path d="M2.228-1A3.2,3.2,0,0,1,5.457,2.157,3.2,3.2,0,0,1,2.228,5.313,3.2,3.2,0,0,1-1,2.157,3.2,3.2,0,0,1,2.228-1Zm0,4.313A1.2,1.2,0,0,0,3.457,2.157,1.2,1.2,0,0,0,2.228,1,1.2,1.2,0,0,0,1,2.157,1.2,1.2,0,0,0,2.228,3.313Z" transform="translate(24.281 6.412)" fill="#1428a0"/><path d="M2.228-1A3.2,3.2,0,0,1,5.457,2.157,3.2,3.2,0,0,1,2.228,5.313,3.2,3.2,0,0,1-1,2.157,3.2,3.2,0,0,1,2.228-1Zm0,4.313A1.2,1.2,0,0,0,3.457,2.157,1.2,1.2,0,0,0,2.228,1,1.2,1.2,0,0,0,1,2.157,1.2,1.2,0,0,0,2.228,3.313Z" transform="translate(37.651 17.914)" fill="#1428a0"/><path d="M0,6.032a1,1,0,0,1-.872-.509A1,1,0,0,1-.492,4.161L8.422-.871a1,1,0,0,1,1.362.379A1,1,0,0,1,9.405.871L.492,5.9A1,1,0,0,1,0,6.032Z" transform="translate(15.022 10.176)" fill="#1428a0"/><path d="M9.214,9.35a1,1,0,0,1-.671-.259L-.671.741A1,1,0,0,1-.741-.671,1,1,0,0,1,.671-.741l9.215,8.35A1,1,0,0,1,9.214,9.35Z" transform="translate(28.393 10.176)" fill="#1428a0"/><path d="M0-1H52.242a1,1,0,0,1,1,1V38.413a1,1,0,0,1-1,1H0a1,1,0,0,1-1-1V0A1,1,0,0,1,0-1ZM51.242,1H1V37.413H51.242Z" fill="#222"/><path d="M0,8.729A1,1,0,0,1-.49,8.6,1,1,0,0,1-.872,7.239L3.473-.49A1,1,0,0,1,4.835-.872,1,1,0,0,1,5.217.49L.872,8.219A1,1,0,0,1,0,8.729Z" transform="translate(12.382 38.832)" fill="#222"/><path d="M4.346,8.729a1,1,0,0,1-.873-.51L-.872.49A1,1,0,0,1-.49-.872,1,1,0,0,1,.872-.49L5.217,7.239a1,1,0,0,1-.871,1.49Z" transform="translate(36.265 38.832)" fill="#222"/></g></g></svg>