<svg xmlns="http://www.w3.org/2000/svg" width="50" height="50" viewBox="0 0 50 50"><rect width="50" height="50" rx="6" fill="red"/><g transform="translate(11.996 15.849)"><path d="M44.256,21.858a3.266,3.266,0,0,0-2.3-2.311C39.928,19,31.8,19,31.8,19s-8.133,0-10.161.546a3.266,3.266,0,0,0-2.3,2.311,34.209,34.209,0,0,0-.543,6.293,34.209,34.209,0,0,0,.543,6.293,3.266,3.266,0,0,0,2.3,2.311C23.662,37.3,31.8,37.3,31.8,37.3s8.133,0,10.161-.546a3.266,3.266,0,0,0,2.3-2.311,34.209,34.209,0,0,0,.543-6.293A34.209,34.209,0,0,0,44.256,21.858ZM29.195,32.073V24.229l6.757,3.922Z" transform="translate(-18.791 -19)" fill="#fff"/></g></svg>