<svg xmlns="http://www.w3.org/2000/svg" width="34" height="34" viewBox="0 0 34 34"><g transform="translate(-242 -14)"><rect width="34" height="34" transform="translate(242 14)" fill="#fff" opacity="0"/><g transform="translate(247 17)" opacity="0.9"><path d="M869.262,209.778H846.074a.75.75,0,0,1-.75-.75V181.241a.75.75,0,0,1,.75-.75h18.071a.75.75,0,0,1,.559.25l5.746,6.418a.75.75,0,0,1,.191.5V195.2a.75.75,0,0,1-1.5,0v-7.252l-5.331-5.954H846.824v26.287h22.438a.75.75,0,0,1,0,1.5Z" transform="translate(-846.074 -181.241)" fill="#fff"/><path d="M865.828,197.259h-8a.75.75,0,0,1,0-1.5h8a.75.75,0,0,1,0,1.5Z" transform="translate(-853.138 -190.448)" fill="#fff"/><path d="M866.005,207.834h-8.2a.75.75,0,0,1,0-1.5h8.2a.75.75,0,0,1,0,1.5Z" transform="translate(-853.124 -196.825)" fill="#fff"/><path d="M4.335.75H0A.75.75,0,0,1-.75,0,.75.75,0,0,1,0-.75H4.335a.75.75,0,0,1,.75.75A.75.75,0,0,1,4.335.75Z" transform="translate(4.815 14.456)" fill="#fff"/><path d="M3.674-.75A4.424,4.424,0,1,1-.75,3.674,4.429,4.429,0,0,1,3.674-.75Zm0,7.348A2.924,2.924,0,1,0,.75,3.674,2.927,2.927,0,0,0,3.674,6.6Z" transform="translate(12.728 15.569)" fill="#fff"/><path d="M3.058,4.4a.748.748,0,0,1-.572-.265l-4.42-5.208a.75.75,0,0,1,.087-1.057.75.75,0,0,1,1.057.087l4.42,5.208A.75.75,0,0,1,3.058,4.4Z" transform="translate(20.367 24.041)" fill="#fff"/></g></g></svg>