<svg xmlns="http://www.w3.org/2000/svg" width="34" height="34" viewBox="0 0 34 34"><g transform="translate(-239 -14)"><rect width="34" height="34" transform="translate(239 14)" fill="#fff" opacity="0"/><g transform="translate(243 19)" opacity="0.9"><path d="M787.321,135.3a.75.75,0,0,1-.546-.236l-3.281-3.483H773.9a.75.75,0,0,1-.75-.75v-6.048a.75.75,0,0,1,1.5,0v5.3h9.166a.75.75,0,0,1,.546.236l2.207,2.343v-1.829a.75.75,0,0,1,.75-.75h1.768v-9.2h-2.864a.75.75,0,0,1,0-1.5h3.614a.75.75,0,0,1,.75.75v10.7a.75.75,0,0,1-.75.75h-1.768v2.969a.75.75,0,0,1-.75.75Z" transform="translate(-763.819 -109.966)" fill="#fff"/><path d="M746,91.25h21.683a.75.75,0,0,1,.75.75v14.817a.75.75,0,0,1-.75.75H754.516l-4.544,4.824a.75.75,0,0,1-1.3-.514v-4.309H746a.75.75,0,0,1-.75-.75V92A.75.75,0,0,1,746,91.25Zm20.933,1.5H746.75v13.317h2.676a.75.75,0,0,1,.75.75v3.169l3.47-3.684a.75.75,0,0,1,.546-.236h12.742Z" transform="translate(-746 -92)" fill="#fff"/><path d="M771.553,107.538H760.711a.75.75,0,0,1,0-1.5h10.842a.75.75,0,0,1,0,1.5Z" transform="translate(-755.395 -101.444)" fill="#fff"/><path d="M766.236,117.538h-5.525a.75.75,0,0,1,0-1.5h5.525a.75.75,0,0,1,0,1.5Z" transform="translate(-755.395 -107.83)" fill="#fff"/></g></g></svg>