<svg xmlns="http://www.w3.org/2000/svg" width="64" height="64" viewBox="0 0 64 64"><g transform="translate(2 2)"><g opacity="0"><rect width="64" height="64" transform="translate(-2 -2)" fill="#fff"/><path d="M1,1V63H63V1H1M0,0H64V64H0Z" transform="translate(-2 -2)" fill="#707070"/></g><g transform="translate(5.227 5.227)"><path d="M25-1A26.007,26.007,0,0,1,35.121,48.956,26.006,26.006,0,0,1,14.879,1.044,25.838,25.838,0,0,1,25-1Zm0,50A24.007,24.007,0,0,0,34.342,2.886,24.006,24.006,0,0,0,15.658,47.114,23.849,23.849,0,0,0,25,49Z" transform="translate(-0.227 -0.227)" fill="#222"/><g transform="translate(10.282 10.039)"><path d="M1163.021,103.679a14.91,14.91,0,0,1,14.91,14.91,1,1,0,0,1-1,1h-13.91a1,1,0,0,1-1-1v-13.91A1,1,0,0,1,1163.021,103.679Zm12.872,13.91a12.914,12.914,0,0,0-11.872-11.872v11.872Z" transform="translate(-1147.659 -104.679)" fill="#1428a0"/><path d="M1157.274,135.286a16.179,16.179,0,0,1-6.444-31.02,1,1,0,1,1,.8,1.835,14.174,14.174,0,1,0,18.83,18.2,1,1,0,1,1,1.86.734,16.211,16.211,0,0,1-15.042,10.246Z" transform="translate(-1142.092 -104.813)" fill="#222"/></g></g></g></svg>