<svg width="235" height="44" viewBox="0 0 235 44" fill="none" xmlns="http://www.w3.org/2000/svg">
<path d="M213.17 22.297H195.67V24.597H213.17V22.297Z" fill="#1428A0"/>
<path d="M168.47 12.197V24.497H171.47V19.497H173.97V16.997H171.37V12.197H168.47Z" fill="#1428A0"/>
<path d="M157.27 35.497V25.497H171.47V35.597L157.27 35.497ZM168.57 33.097V27.897H160.17V33.097H168.57Z" fill="#1428A0"/>
<path d="M191.87 12.197V24.497H188.87V19.497H184.97V16.997H188.87V12.197H191.87Z" fill="#1428A0"/>
<path d="M184.37 36.197C180.07 36.197 176.47 33.697 176.47 30.497C176.47 27.297 179.97 24.797 184.37 24.797C188.77 24.797 192.27 27.297 192.27 30.497C192.27 33.697 188.77 36.197 184.37 36.197ZM189.27 30.497C189.27 28.697 187.07 27.297 184.37 27.297C181.67 27.297 179.47 28.697 179.47 30.497C179.47 32.297 181.67 33.697 184.37 33.697C187.07 33.697 189.27 32.197 189.27 30.497Z" fill="#1428A0"/>
<path d="M161.37 12.597C161.37 12.597 160.97 19.297 166.37 21.997L164.87 24.097C164.87 24.097 160.97 21.497 160.07 18.597C159.17 21.397 155.27 24.097 155.27 24.097L153.67 21.997C159.07 19.197 158.67 12.597 158.67 12.597H161.37Z" fill="#1428A0"/>
<path d="M179.97 18.697C179.07 21.497 175.47 23.897 175.47 23.897L173.87 21.797C178.87 19.297 178.57 12.597 178.57 12.597H181.37C181.37 12.597 180.97 19.297 186.07 21.797L184.57 23.897C184.47 23.897 180.77 21.597 179.97 18.697Z" fill="#1428A0"/>
<path d="M228.67 12.197V27.297H231.67V19.497H234.27V16.997H231.67V12.197H228.67Z" fill="#1428A0"/>
<path d="M221.47 12.597C221.47 12.597 221.07 19.297 226.47 21.997L224.87 24.097C224.87 24.097 220.97 21.497 220.07 18.597C219.17 21.397 215.27 24.097 215.27 24.097L213.67 21.997C219.07 19.197 218.67 12.597 218.67 12.597H221.47Z" fill="#1428A0"/>
<path d="M217.87 25.497H220.77V35.597H217.87V25.497Z" fill="#1428A0"/>
<path d="M219.47 32.997H231.67V35.497H219.47V32.997Z" fill="#1428A0"/>
<path d="M203.07 24.397H205.77V26.397H203.07V24.397Z" fill="#1428A0"/>
<path d="M197.37 12.797H211.57V15.097H197.37V12.797Z" fill="#1428A0"/>
<path d="M197.37 18.597H211.57V20.897H197.37V18.597Z" fill="#1428A0"/>
<path d="M197.37 25.997H211.57V28.297H197.37V25.997Z" fill="#1428A0"/>
<path d="M197.37 29.397H211.57V31.697H197.37V29.397Z" fill="#1428A0"/>
<path d="M197.37 33.297H211.57V35.597H197.37V33.297Z" fill="#1428A0"/>
<path d="M208.67 26.997H211.57V31.797H208.67V26.997Z" fill="#1428A0"/>
<path d="M208.67 14.797H211.57V19.597H208.67V14.797Z" fill="#1428A0"/>
<path d="M197.37 29.997H200.27V34.697H197.37V29.997Z" fill="#1428A0"/>
<path d="M197.37 14.397H200.27V19.197H197.37V14.397Z" fill="#1428A0"/>
<path d="M129.6 10.3C131.4 20.4 103.8 33.7 68 39.9C32.2 46.1 1.79999 42.9 0.0999938 32.8C-1.60001 22.7 25.9 9.39999 61.6 3.19999C97.3 -3.00001 127.8 0.0999947 129.6 10.3Z" fill="#1428A0"/>
<path d="M24.5 24.4C24.6 24.7 24.6 25.1 24.5 25.4C24.4 26 23.8 26.4 23.2 26.3C22.5 26.4 21.9 25.9 21.9 25.3C21.9 25.2 21.9 25.2 21.9 25.1V23.8H18.3V24.8C18.3 27.8 20.7 28.7 23.2 28.7C25.6 28.7 27.6 27.9 27.9 25.6C28 24.9 28 24.1 27.9 23.4C27.3 20.6 22.2 19.8 21.9 18.2C21.8 18 21.8 17.7 21.9 17.5C22 16.9 22.5 16.5 23.1 16.6C23.7 16.5 24.3 17 24.3 17.6C24.3 17.7 24.3 17.7 24.3 17.8V18.6H27.6V17.7C27.6 14.8 25 14.3 23.1 14.3C20.7 14.3 18.8 15.1 18.4 17.3C18.3 17.9 18.3 18.5 18.4 19.1C19 21.9 23.8 22.6 24.5 24.4Z" fill="white"/>
<path d="M68.1 24.4C68.2 24.7 68.2 25.1 68.1 25.4C68 26 67.4 26.4 66.8 26.3C66.2 26.4 65.6 25.9 65.5 25.3C65.5 25.2 65.5 25.2 65.5 25.1V23.8H61.9V24.8C61.9 27.8 64.2 28.7 66.7 28.7C69.1 28.7 71.1 27.9 71.4 25.7C71.5 25 71.5 24.2 71.4 23.5C70.8 20.7 65.8 19.9 65.4 18.3C65.3 18.1 65.3 17.8 65.4 17.6C65.5 17 66 16.6 66.6 16.7C67.2 16.6 67.8 17.1 67.8 17.7C67.8 17.8 67.8 17.8 67.8 17.9V18.7H71.1V17.8C71.1 14.9 68.5 14.5 66.6 14.5C64.2 14.5 62.3 15.3 62 17.4C61.9 18 61.9 18.6 62 19.2C62.7 21.9 67.4 22.6 68.1 24.4Z" fill="white"/>
<path d="M95.9 25.5L95.7 14.7H99V28H94.2L90.8 16.9L91.1 28H87.8V14.8H92.8L95.9 25.5Z" fill="white"/>
<path d="M35.6 15.7L33.7 28.1H30.1L32.6 14.7H38.6L41.1 28.1H37.5L35.6 15.7Z" fill="white"/>
<path d="M55.2 15.7L52.9 28.1H49.5L47.2 15.7L47.1 28.1H43.7L44 14.8H49.5L51.2 25.3L52.9 14.8H58.4L58.7 28.2H55.3L55.2 15.7Z" fill="white"/>
<path d="M79.3 26.2C79.9 26.3 80.5 25.8 80.6 25.2C80.6 25 80.6 24.9 80.6 24.7V14.8H84V24.4C84 24.6 84 25.2 84 25.3C83.8 27.8 81.8 28.6 79.3 28.6C76.8 28.6 74.9 27.8 74.6 25.3C74.6 25.2 74.6 24.7 74.6 24.4V14.8H78V24.7C78 24.9 78 25 78 25.2C78.2 25.8 78.7 26.2 79.3 26.2Z" fill="white"/>
<path d="M107.3 26C107.9 26.1 108.5 25.7 108.7 25C108.7 24.8 108.7 24.7 108.7 24.5V22.6H107.3V20.6H112V24.2C112 24.5 112 24.6 112 25.1C111.8 27.5 109.7 28.4 107.3 28.4C104.9 28.4 102.8 27.5 102.6 25.1C102.6 24.8 102.6 24.5 102.6 24.2V18.6C102.6 18.4 102.6 17.9 102.7 17.7C103 15.2 105 14.4 107.4 14.4C109.8 14.4 111.9 15.2 112.1 17.7C112.1 18.1 112.1 18.6 112.1 18.6V19H108.7V18.2C108.7 18 108.7 17.9 108.7 17.7C108.6 17.1 108 16.7 107.4 16.7C106.8 16.6 106.2 17.1 106.1 17.7C106.1 17.9 106 18.1 106 18.3V24.4C106 24.6 106 24.7 106 24.9C106.1 25.7 106.7 26.1 107.3 26Z" fill="white"/>
</svg>
